<svg width="347" height="91" viewBox="0 0 347 91" fill="none" xmlns="http://www.w3.org/2000/svg">
<path d="M20.7627 6.25883C24.3878 5.27316 28.9182 7.25898 31.4152 9.57615C31.688 9.82922 32.0398 9.804 32.2222 9.55176C32.34 9.38861 32.4872 9.22715 32.691 9.05061C34.8956 7.40699 37.9169 7.1176 40.9994 8.59271C46.3606 11.1585 49.8738 18.0862 48.8465 24.0661C48.8095 24.2812 48.7677 24.4924 48.7201 24.6992C48.6329 25.078 48.7362 25.5314 48.9902 25.8856C51.2784 29.0769 52.4398 33.2268 51.7913 37.0017C51.3858 39.3616 50.3335 41.221 48.8789 42.45C48.4653 42.7716 47.7966 43.0991 47.0123 43.4948L37.4289 48L31.6886 39.0983L24.3017 35.5637L24.2228 35.5249C17.5237 32.2646 13.0221 23.8722 13.7247 16.2729L9.96973 11.5009L18.5642 7.19865L18.7854 7.08965C19.4315 6.78082 20.0186 6.46122 20.7627 6.25883Z" fill="url(#paint0_radial_67_402)" fill-opacity="0.78"/>
<path d="M20.7627 6.25883C24.3878 5.27316 28.9182 7.25898 31.4152 9.57615C31.688 9.82922 32.0398 9.804 32.2222 9.55176C32.34 9.38861 32.4872 9.22715 32.691 9.05061C34.8956 7.40699 37.9169 7.1176 40.9994 8.59271C46.3606 11.1585 49.8738 18.0862 48.8465 24.0661C48.8095 24.2812 48.7677 24.4924 48.7201 24.6992C48.6329 25.078 48.7362 25.5314 48.9902 25.8856C51.2784 29.0769 52.4398 33.2268 51.7913 37.0017C51.3858 39.3616 50.3335 41.221 48.8789 42.45C48.4653 42.7716 47.7966 43.0991 47.0123 43.4948L37.4289 48L31.6886 39.0983L24.3017 35.5637L24.2228 35.5249C17.5237 32.2646 13.0221 23.8722 13.7247 16.2729L9.96973 11.5009L18.5642 7.19865L18.7854 7.08965C19.4315 6.78082 20.0186 6.46122 20.7627 6.25883Z" fill="url(#paint1_linear_67_402)"/>
<mask id="mask0_67_402" style="mask-type:alpha" maskUnits="userSpaceOnUse" x="9" y="6" width="43" height="42">
<path d="M20.7627 6.25883C24.3878 5.27316 28.9182 7.25898 31.4152 9.57615C31.688 9.82922 32.0398 9.804 32.2222 9.55176C32.34 9.38861 32.4872 9.22715 32.691 9.05061C34.8956 7.40699 37.9169 7.1176 40.9994 8.59271C46.3606 11.1585 49.8738 18.0862 48.8465 24.0661C48.8095 24.2812 48.7677 24.4924 48.7201 24.6992C48.6329 25.078 48.7362 25.5314 48.9902 25.8856C51.2784 29.0769 52.4398 33.2268 51.7913 37.0017C51.3858 39.3616 50.3335 41.221 48.8789 42.45C48.4653 42.7716 47.7966 43.0991 47.0123 43.4948L37.4289 48L31.6886 39.0983L24.3017 35.5637L24.2228 35.5249C17.5237 32.2646 13.0221 23.8722 13.7247 16.2729L9.96973 11.5009L18.5642 7.19865L18.7854 7.08965C19.4315 6.78082 20.0186 6.46122 20.7627 6.25883Z" fill="url(#paint2_linear_67_402)"/>
</mask>
<g mask="url(#mask0_67_402)">
<g filter="url(#filter0_di_67_402)">
<path d="M14.0727 14.942C14.7832 10.8067 17.0584 7.23785 20.9448 6.18084C24.5929 5.18865 29.158 7.20558 31.6451 9.54159C31.891 9.77261 32.2113 9.75509 32.3689 9.52447C32.4925 9.34344 32.6484 9.16783 32.8735 8.97281C35.0782 7.32899 38.0997 7.03919 41.1824 8.51455C46.5436 11.0804 50.0568 18.0082 49.0295 23.9882C48.9925 24.2032 48.9502 24.4142 48.9026 24.6211C48.8154 24.9999 48.9187 25.4533 49.1727 25.8075C51.461 28.9988 52.6222 33.1483 51.9737 36.9233C51.5682 39.2834 50.5161 41.1431 49.0613 42.3722C47.7676 43.3781 44.2254 44.933 40.4062 43.1052L24.4845 35.4852L24.405 35.4466C17.3353 32.006 12.7141 22.85 14.0727 14.942Z" fill="url(#paint3_linear_67_402)"/>
</g>
</g>
<g opacity="0.55">
<mask id="mask1_67_402" style="mask-type:alpha" maskUnits="userSpaceOnUse" x="9" y="6" width="43" height="42">
<path d="M20.7627 6.25883C24.3878 5.27316 28.9182 7.25898 31.4152 9.57615C31.688 9.82922 32.0398 9.804 32.2222 9.55176C32.34 9.38861 32.4872 9.22715 32.691 9.05061C34.8956 7.40699 37.9169 7.1176 40.9994 8.59271C46.3606 11.1585 49.8738 18.0862 48.8465 24.0661C48.8095 24.2811 48.7677 24.4924 48.7201 24.6992C48.6329 25.078 48.7362 25.5313 48.9902 25.8856C51.2784 29.0769 52.4398 33.2268 51.7913 37.0017C51.3858 39.3616 50.3335 41.221 48.8789 42.45C48.4653 42.7716 47.7966 43.0991 47.0123 43.4948L37.4289 48L31.6886 39.0983L24.3017 35.5637L24.2228 35.5249C17.5237 32.2646 13.0221 23.8722 13.7247 16.2729L9.96973 11.5009L18.5642 7.19865L18.7854 7.08965C19.4315 6.78082 20.0186 6.46122 20.7627 6.25883Z" fill="#F8F653"/>
</mask>
<g mask="url(#mask1_67_402)">
<g filter="url(#filter1_f_67_402)">
<path d="M51.1822 24.2065L37.4613 31.0046L41.0684 38.3692L54.7893 31.0046L51.1822 24.2065Z" fill="url(#paint4_linear_67_402)"/>
</g>
<g filter="url(#filter2_f_67_402)">
<path d="M49.526 38.5713L35.8051 45.3694L41.1712 47.3726L57.7574 39.6067L49.526 38.5713Z" fill="url(#paint5_linear_67_402)"/>
</g>
<g filter="url(#filter3_f_67_402)">
<path d="M21.5179 5.08447L7.797 11.8826L13.1631 13.8858L29.7494 6.11992L21.5179 5.08447Z" fill="url(#paint6_linear_67_402)"/>
</g>
<g opacity="0.5" filter="url(#filter4_f_67_402)">
<rect width="16.0651" height="1.08516" transform="matrix(0.884273 -0.466971 0.4166 0.90909 39.0445 39.6396)" fill="white"/>
</g>
<g filter="url(#filter5_f_67_402)">
<path d="M24.7959 13.4429L40.0999 4.94529L53.2931 10.0438L34.2193 19.0988L24.7959 13.4429Z" fill="white" fill-opacity="0.6"/>
</g>
</g>
</g>
<path d="M3.13769 19.2338C3.8946 15.0824 6.31854 11.4997 10.4591 10.4386C14.364 9.43786 19.2552 11.4864 21.8963 13.8454C22.1407 14.0637 22.4569 14.0386 22.6177 13.8127C22.7515 13.6247 22.9203 13.4434 23.1679 13.2414C25.5168 11.5912 28.7359 11.3003 32.0201 12.7814C37.7319 15.3571 41.4749 22.3118 40.3804 28.315C40.341 28.5309 40.2959 28.7427 40.2452 28.9504C40.1523 29.3307 40.2624 29.7858 40.533 30.1414C42.9709 33.3452 44.2081 37.5107 43.5172 41.3003C43.0852 43.6696 41.9642 45.5366 40.4143 46.7704C39.036 47.7802 35.2621 49.3412 31.1932 47.5062L14.2303 39.8567L14.1456 39.818C6.61359 36.364 1.69024 27.1725 3.13769 19.2338Z" fill="url(#paint7_linear_67_402)"/>
<path d="M3.13769 19.2338C3.8946 15.0824 6.31854 11.4997 10.4591 10.4386C14.364 9.43786 19.2552 11.4864 21.8963 13.8454C22.1407 14.0637 22.4569 14.0386 22.6177 13.8127C22.7515 13.6247 22.9203 13.4434 23.1679 13.2414C25.5168 11.5912 28.7359 11.3003 32.0201 12.7814C37.7319 15.3571 41.4749 22.3118 40.3804 28.315C40.341 28.5309 40.2959 28.7427 40.2452 28.9504C40.1523 29.3307 40.2624 29.7858 40.533 30.1414C42.9709 33.3452 44.2081 37.5107 43.5172 41.3003C43.0852 43.6696 41.9642 45.5366 40.4143 46.7704C39.036 47.7802 35.2621 49.3412 31.1932 47.5062L14.2303 39.8567L14.1456 39.818C6.61359 36.364 1.69024 27.1725 3.13769 19.2338Z" fill="url(#paint8_linear_67_402)" fill-opacity="0.13"/>
<path d="M3.13766 19.2339C3.89457 15.0825 6.31851 11.4998 10.4591 10.4387C14.5997 9.37756 19.8492 11.7449 22.3492 14.2755L40.4827 30.0977C40.5161 30.1268 40.547 30.1599 40.5745 30.1964C42.9849 33.3927 44.2041 37.5324 43.5171 41.3004C43.0851 43.6697 41.9642 45.5367 40.4143 46.7705C39.036 47.7803 35.2621 49.3413 31.1932 47.5063L14.2303 39.8568L14.1455 39.8181C6.61356 36.3641 1.69021 27.1726 3.13766 19.2339Z" fill="url(#paint9_radial_67_402)" fill-opacity="0.25"/>
<path d="M3.13766 19.2339C3.89457 15.0825 6.31851 11.4998 10.4591 10.4387C14.5997 9.37756 19.8492 11.7449 22.3492 14.2755L40.4827 30.0977C40.5161 30.1268 40.547 30.1599 40.5745 30.1964C42.9849 33.3927 44.2041 37.5324 43.5171 41.3004C43.0851 43.6697 41.9642 45.5367 40.4143 46.7705C39.036 47.7803 35.2621 49.3413 31.1932 47.5063L14.2303 39.8568L14.1455 39.8181C6.61356 36.3641 1.69021 27.1726 3.13766 19.2339Z" fill="url(#paint10_radial_67_402)" fill-opacity="0.12"/>
<mask id="mask2_67_402" style="mask-type:alpha" maskUnits="userSpaceOnUse" x="2" y="10" width="42" height="39">
<path d="M3.13769 19.2338C3.8946 15.0824 6.31854 11.4997 10.4591 10.4386C14.364 9.43786 19.2552 11.4864 21.8963 13.8454C22.1407 14.0637 22.4569 14.0386 22.6177 13.8127C22.7515 13.6247 22.9203 13.4434 23.1679 13.2414C25.5168 11.5912 28.7359 11.3003 32.0201 12.7814C37.7319 15.3571 41.4749 22.3118 40.3804 28.315C40.341 28.5309 40.2959 28.7427 40.2452 28.9504C40.1523 29.3307 40.2624 29.7858 40.533 30.1414C42.9709 33.3452 44.2081 37.5107 43.5172 41.3003C43.0852 43.6696 41.9642 45.5366 40.4143 46.7704C39.036 47.7802 35.2621 49.3412 31.1932 47.5062L14.2303 39.8567L14.1456 39.818C6.61359 36.364 1.69024 27.1725 3.13769 19.2338Z" fill="url(#paint11_linear_67_402)"/>
</mask>
<g mask="url(#mask2_67_402)">
<path d="M13.258 14.9333C14.0149 10.7819 16.4388 7.19916 20.5794 6.13804C24.4843 5.13733 29.3755 7.18586 32.0166 9.54491C32.261 9.76316 32.5772 9.73808 32.738 9.51217C32.8718 9.32421 33.0406 9.14291 33.2882 8.94086C35.6371 7.29065 38.8562 6.99973 42.1404 8.48082C47.8522 11.0566 51.5952 18.0113 50.5007 24.0145C50.4613 24.2303 50.4162 24.4422 50.3655 24.6498C50.2726 25.0302 50.3827 25.4853 50.6533 25.8409C53.0912 29.0446 54.3284 33.2102 53.6375 36.9998C53.2055 39.3691 52.0845 41.2361 50.5346 42.4698C49.1563 43.4797 45.3824 45.0406 41.3135 43.2057L24.3506 35.5561L24.2659 35.5174C16.7339 32.0635 11.8105 22.8719 13.258 14.9333Z" fill="url(#paint12_linear_67_402)"/>
<path d="M13.258 14.9334C14.0149 10.782 16.4388 7.19927 20.5794 6.13815C21.0055 6.03883 21.8128 5.96492 22.2831 6.26341C22.4935 6.39698 22.4463 6.68826 22.2756 6.81161C8.95057 16.4399 15.1506 30.0076 24.3506 35.5562L24.2658 35.5175C16.7339 32.0636 11.8105 22.872 13.258 14.9334Z" fill="#F9F89B"/>
</g>
<path d="M20.5005 5.29399C22.5705 4.73131 24.8258 5.03105 26.8423 5.73539C28.7054 6.38618 30.4443 7.41065 31.7651 8.54985C31.8487 8.46467 31.9388 8.37974 32.0366 8.29496L32.064 8.27055L32.0933 8.24907C34.6337 6.35509 38.0587 6.07665 41.4312 7.69047C44.3448 9.08496 46.7096 11.6371 48.2104 14.5967C49.7117 17.5572 50.387 21.0014 49.8315 24.2354C49.792 24.4656 49.7472 24.6961 49.6948 24.9239C49.6802 24.9881 49.6938 25.1513 49.8022 25.3028C52.222 28.6774 53.4772 33.0937 52.7769 37.1709C52.3371 39.7303 51.1819 41.8131 49.5239 43.2139L49.5083 43.2276L49.4917 43.2393C48.9805 43.6366 48.1952 44.0181 47.4624 44.3877L47.4497 44.3946L47.437 44.4004L41.4116 47.2305C41.2946 47.3364 41.1707 47.4468 41.0376 47.5528L41.022 47.5655L41.0054 47.5772C39.4293 48.7319 35.2722 50.4421 30.7817 48.417L13.8188 40.7676H13.8169L13.7329 40.7295L13.729 40.7276C5.79863 37.0909 0.621041 27.4604 2.15381 19.0538C2.95581 14.6562 5.57379 10.6583 10.2114 9.46977C10.9155 9.28938 11.6381 9.20166 12.3618 9.18461L18.1245 6.29985L18.3462 6.19145L18.354 6.18754C18.9454 5.90484 19.6443 5.52688 20.5005 5.29399ZM31.4155 9.57621C28.9185 7.25914 24.3882 5.27345 20.7632 6.25883C20.0191 6.46121 19.4317 6.78107 18.7856 7.08989L18.564 7.19828L12.6069 10.1807C11.8722 10.182 11.1504 10.2615 10.4595 10.4385C6.319 11.4996 3.89419 15.0822 3.13721 19.2334C1.68976 27.1721 6.61402 36.3644 14.146 39.8184L14.23 39.8565L31.1929 47.5059C35.2618 49.3408 39.0362 47.7804 40.4146 46.7705C40.5654 46.6505 40.7096 46.5216 40.8521 46.3897L47.0122 43.4952C47.7963 43.0996 48.4648 42.7718 48.8784 42.4502C50.333 41.2213 51.386 39.3618 51.7915 37.002C52.44 33.2271 51.278 29.0771 48.9897 25.8858C48.7358 25.5316 48.6331 25.078 48.7202 24.6993C48.7678 24.4925 48.8093 24.2813 48.8462 24.0664C49.8735 18.0865 46.3606 11.1587 40.9995 8.59282C37.917 7.1177 34.8955 7.4072 32.6909 9.05082C32.4872 9.22731 32.3399 9.38869 32.2222 9.5518C32.0398 9.80399 31.6882 9.82914 31.4155 9.57621Z" fill="url(#paint13_linear_67_402)"/>
<path d="M93.5708 45.8182C85.5791 45.8182 80.3518 40.8312 80 33.1948H86.3833C86.7352 37.2468 89.3488 39.8442 93.5708 39.8442C97.3405 39.8442 99.9541 38.2857 99.9541 35.065C99.9541 27.2727 81.0555 32.6753 81.0555 18.7533C81.0555 12.7792 86.0315 8.6234 93.1687 8.6234C100.608 8.6234 105.634 13.039 105.935 19.8442H99.6023C99.3007 16.6753 96.8882 14.5455 93.1687 14.5455C89.7006 14.5455 87.5393 16.2078 87.5393 18.7533C87.5393 26.8052 106.689 20.7792 106.689 34.961C106.689 41.7143 101.311 45.8182 93.5708 45.8182ZM111.55 45.4026V19.2208H117.732V20.4675C117.732 21.5584 118.436 21.7143 119.19 21.1428C120.949 19.6883 123.16 18.8052 125.824 18.8052C131.655 18.8052 135.475 23.0649 135.475 29.1948V45.4026H129.292V30.5455C129.292 26.961 127.081 24.4675 123.814 24.4675C120.245 24.4675 117.732 27.2727 117.732 31.1169V45.4026H111.55ZM149.229 45.8182C144.102 45.8182 140.534 42.4935 140.534 37.9741C140.534 32.8832 144.454 29.7143 150.385 29.7143H155.26C156.467 29.7143 157.121 28.987 157.121 27.8961C157.121 25.4026 155.11 23.5844 151.692 23.5844C148.325 23.5844 146.213 25.7143 146.063 28.0519H140.484C140.835 22.8572 145.309 18.8052 151.943 18.8052C158.578 18.8052 163.252 22.6493 163.252 28.5715V45.4026H157.121V41.5065C156.065 44.1039 152.898 45.8182 149.229 45.8182ZM150.637 41.0909C154.708 41.0909 157.121 38.2857 157.121 34.3377V33.9221H151.139C148.375 33.9221 146.515 35.4286 146.515 37.7143C146.515 39.7402 148.224 41.0909 150.637 41.0909ZM169.47 56V19.2208H175.652V22.4935C177.211 20.2598 180.126 18.8052 183.544 18.8052C191.134 18.8052 195.708 24.3117 195.708 32.3117C195.708 40.3117 190.832 45.8182 183.142 45.8182C179.975 45.8182 177.06 44.5715 175.652 42.5455V56H169.47ZM182.438 40.3117C186.71 40.3117 189.575 37.1428 189.575 32.3117C189.575 27.4806 186.71 24.3117 182.438 24.3117C178.116 24.3117 175.251 27.4806 175.251 32.3117C175.251 37.1428 178.116 40.3117 182.438 40.3117ZM228.569 45.8182C218.918 45.8182 210.575 39.5844 210.575 27.2208C210.575 14.8572 219.069 8.6234 228.569 8.6234C237.213 8.6234 243.848 13.7662 244.853 21.2987H237.817C237.314 17.2987 233.394 14.5455 228.519 14.5455C222.085 14.5455 217.31 19.013 217.31 27.2208C217.31 35.4286 222.085 39.8442 228.519 39.8442C233.495 39.8442 237.415 37.0909 238.018 33.1428H244.703C243.949 40.6753 237.314 45.8182 228.569 45.8182ZM249.524 45.4026V8H255.706V45.4026H249.524ZM274.155 45.8182C266.264 45.8182 260.534 40.1039 260.534 32.3117C260.534 24.5194 266.264 18.8052 274.155 18.8052C282.097 18.8052 287.777 24.5194 287.777 32.3117C287.777 40.1039 282.097 45.8182 274.155 45.8182ZM274.155 40.3117C278.579 40.3117 281.544 37.039 281.544 32.3117C281.544 27.5844 278.579 24.3117 274.155 24.3117C269.782 24.3117 266.766 27.5844 266.766 32.3117C266.766 37.039 269.782 40.3117 274.155 40.3117ZM315.84 19.2208V45.4026H309.658V44.1559C309.658 43.013 308.904 42.9091 308.25 43.4806C306.542 44.9351 304.431 45.8182 301.767 45.8182C296.087 45.8182 292.368 41.5584 292.368 35.4286V19.2208H298.5V34.078C298.5 37.6624 300.661 40.1559 303.828 40.1559C307.245 40.1559 309.658 37.3507 309.658 33.5065V19.2208H315.84ZM333.178 45.8182C325.337 45.8182 320.763 40.3117 320.763 32.3117C320.763 24.3117 325.337 18.8052 333.127 18.8052C336.445 18.8052 339.309 20.2078 340.818 22.3896V8H347V45.4026H340.818V42.1299C339.309 44.4675 336.344 45.8182 333.178 45.8182ZM334.032 40.3117C338.405 40.3117 341.27 37.1428 341.27 32.3117C341.27 27.4806 338.405 24.3117 334.032 24.3117C329.76 24.3117 326.945 27.5325 326.945 32.3117C326.945 37.0909 329.76 40.3117 334.032 40.3117Z" fill="white"/>
<path d="M150.72 71.224H152.928V72.248H152.96C153.056 72.1093 153.179 71.9707 153.328 71.832C153.488 71.6827 153.67 71.5493 153.872 71.432C154.086 71.3147 154.315 71.2187 154.56 71.144C154.806 71.0693 155.067 71.032 155.344 71.032C155.92 71.032 156.443 71.1333 156.912 71.336C157.382 71.528 157.782 71.8053 158.112 72.168C158.454 72.52 158.715 72.9413 158.896 73.432C159.078 73.9227 159.168 74.4613 159.168 75.048C159.168 75.592 159.083 76.1147 158.912 76.616C158.752 77.1067 158.518 77.544 158.208 77.928C157.91 78.312 157.542 78.6213 157.104 78.856C156.667 79.08 156.171 79.192 155.616 79.192C155.115 79.192 154.646 79.1173 154.208 78.968C153.782 78.808 153.43 78.5413 153.152 78.168H153.12V82.648H150.72V71.224ZM152.928 75.112C152.928 75.6987 153.094 76.1733 153.424 76.536C153.766 76.8987 154.24 77.08 154.848 77.08C155.456 77.08 155.926 76.8987 156.256 76.536C156.598 76.1733 156.768 75.6987 156.768 75.112C156.768 74.5253 156.598 74.0507 156.256 73.688C155.926 73.3253 155.456 73.144 154.848 73.144C154.24 73.144 153.766 73.3253 153.424 73.688C153.094 74.0507 152.928 74.5253 152.928 75.112ZM160.126 75.112C160.126 74.4933 160.238 73.9333 160.462 73.432C160.686 72.9307 160.99 72.504 161.374 72.152C161.769 71.7893 162.228 71.512 162.75 71.32C163.284 71.128 163.849 71.032 164.446 71.032C165.044 71.032 165.604 71.128 166.126 71.32C166.66 71.512 167.118 71.7893 167.502 72.152C167.897 72.504 168.206 72.9307 168.43 73.432C168.654 73.9333 168.766 74.4933 168.766 75.112C168.766 75.7307 168.654 76.2907 168.43 76.792C168.206 77.2933 167.897 77.7253 167.502 78.088C167.118 78.44 166.66 78.712 166.126 78.904C165.604 79.096 165.044 79.192 164.446 79.192C163.849 79.192 163.284 79.096 162.75 78.904C162.228 78.712 161.769 78.44 161.374 78.088C160.99 77.7253 160.686 77.2933 160.462 76.792C160.238 76.2907 160.126 75.7307 160.126 75.112ZM162.526 75.112C162.526 75.6987 162.692 76.1733 163.022 76.536C163.364 76.8987 163.838 77.08 164.446 77.08C165.054 77.08 165.524 76.8987 165.854 76.536C166.196 76.1733 166.366 75.6987 166.366 75.112C166.366 74.5253 166.196 74.0507 165.854 73.688C165.524 73.3253 165.054 73.144 164.446 73.144C163.838 73.144 163.364 73.3253 163.022 73.688C162.692 74.0507 162.526 74.5253 162.526 75.112ZM169.092 71.224H171.652L173.236 76.104H173.268L174.596 71.224H177.22L178.66 76.104H178.692L180.148 71.224H182.58L179.812 79H177.444L175.828 73.832H175.796L174.356 79H171.94L169.092 71.224ZM190.548 77.656C190.164 78.1467 189.679 78.5253 189.092 78.792C188.506 79.0587 187.898 79.192 187.268 79.192C186.671 79.192 186.106 79.096 185.572 78.904C185.05 78.712 184.591 78.44 184.196 78.088C183.812 77.7253 183.508 77.2933 183.284 76.792C183.06 76.2907 182.948 75.7307 182.948 75.112C182.948 74.4933 183.06 73.9333 183.284 73.432C183.508 72.9307 183.812 72.504 184.196 72.152C184.591 71.7893 185.05 71.512 185.572 71.32C186.106 71.128 186.671 71.032 187.268 71.032C187.823 71.032 188.324 71.128 188.772 71.32C189.231 71.512 189.615 71.7893 189.924 72.152C190.244 72.504 190.49 72.9307 190.66 73.432C190.831 73.9333 190.916 74.4933 190.916 75.112V75.864H185.348C185.444 76.3227 185.652 76.6907 185.972 76.968C186.292 77.2347 186.687 77.368 187.156 77.368C187.551 77.368 187.882 77.2827 188.148 77.112C188.426 76.9307 188.666 76.7013 188.868 76.424L190.548 77.656ZM188.516 74.232C188.527 73.8267 188.394 73.48 188.116 73.192C187.839 72.904 187.482 72.76 187.044 72.76C186.778 72.76 186.543 72.8027 186.34 72.888C186.138 72.9733 185.962 73.0853 185.812 73.224C185.674 73.352 185.562 73.5067 185.476 73.688C185.402 73.8587 185.359 74.04 185.348 74.232H188.516ZM192.216 71.224H194.616V72.472H194.648C194.904 71.992 195.208 71.6347 195.56 71.4C195.912 71.1547 196.354 71.032 196.888 71.032C197.026 71.032 197.165 71.0373 197.304 71.048C197.442 71.0587 197.57 71.08 197.688 71.112V73.304C197.517 73.2507 197.346 73.2133 197.176 73.192C197.016 73.16 196.845 73.144 196.664 73.144C196.205 73.144 195.842 73.208 195.576 73.336C195.309 73.464 195.101 73.6453 194.952 73.88C194.813 74.104 194.722 74.376 194.68 74.696C194.637 75.016 194.616 75.368 194.616 75.752V79H192.216V71.224ZM205.65 77.656C205.266 78.1467 204.781 78.5253 204.194 78.792C203.607 79.0587 202.999 79.192 202.37 79.192C201.773 79.192 201.207 79.096 200.674 78.904C200.151 78.712 199.693 78.44 199.298 78.088C198.914 77.7253 198.61 77.2933 198.386 76.792C198.162 76.2907 198.05 75.7307 198.05 75.112C198.05 74.4933 198.162 73.9333 198.386 73.432C198.61 72.9307 198.914 72.504 199.298 72.152C199.693 71.7893 200.151 71.512 200.674 71.32C201.207 71.128 201.773 71.032 202.37 71.032C202.925 71.032 203.426 71.128 203.874 71.32C204.333 71.512 204.717 71.7893 205.026 72.152C205.346 72.504 205.591 72.9307 205.762 73.432C205.933 73.9333 206.018 74.4933 206.018 75.112V75.864H200.45C200.546 76.3227 200.754 76.6907 201.074 76.968C201.394 77.2347 201.789 77.368 202.258 77.368C202.653 77.368 202.983 77.2827 203.25 77.112C203.527 76.9307 203.767 76.7013 203.97 76.424L205.65 77.656ZM203.618 74.232C203.629 73.8267 203.495 73.48 203.218 73.192C202.941 72.904 202.583 72.76 202.146 72.76C201.879 72.76 201.645 72.8027 201.442 72.888C201.239 72.9733 201.063 73.0853 200.914 73.224C200.775 73.352 200.663 73.5067 200.578 73.688C200.503 73.8587 200.461 74.04 200.45 74.232H203.618ZM215.478 79H213.27V77.976H213.238C213.142 78.1147 213.014 78.2587 212.854 78.408C212.704 78.5467 212.523 78.6747 212.31 78.792C212.107 78.9093 211.878 79.0053 211.622 79.08C211.376 79.1547 211.12 79.192 210.854 79.192C210.278 79.192 209.755 79.096 209.286 78.904C208.816 78.7013 208.411 78.424 208.07 78.072C207.739 77.7093 207.483 77.2827 207.302 76.792C207.12 76.3013 207.03 75.7627 207.03 75.176C207.03 74.632 207.11 74.1147 207.27 73.624C207.44 73.1227 207.675 72.68 207.974 72.296C208.283 71.912 208.656 71.608 209.094 71.384C209.531 71.1493 210.027 71.032 210.582 71.032C211.083 71.032 211.547 71.112 211.974 71.272C212.411 71.4213 212.768 71.6827 213.046 72.056H213.078V66.904H215.478V79ZM213.27 75.112C213.27 74.5253 213.099 74.0507 212.758 73.688C212.427 73.3253 211.958 73.144 211.35 73.144C210.742 73.144 210.267 73.3253 209.926 73.688C209.595 74.0507 209.43 74.5253 209.43 75.112C209.43 75.6987 209.595 76.1733 209.926 76.536C210.267 76.8987 210.742 77.08 211.35 77.08C211.958 77.08 212.427 76.8987 212.758 76.536C213.099 76.1733 213.27 75.6987 213.27 75.112ZM222.034 66.904H224.434V72.056H224.466C224.743 71.6827 225.095 71.4213 225.522 71.272C225.959 71.112 226.429 71.032 226.93 71.032C227.485 71.032 227.981 71.1493 228.418 71.384C228.855 71.608 229.223 71.912 229.522 72.296C229.831 72.68 230.066 73.1227 230.226 73.624C230.397 74.1147 230.482 74.632 230.482 75.176C230.482 75.7627 230.391 76.3013 230.21 76.792C230.029 77.2827 229.767 77.7093 229.426 78.072C229.095 78.424 228.695 78.7013 228.226 78.904C227.757 79.096 227.234 79.192 226.658 79.192C226.381 79.192 226.119 79.1547 225.874 79.08C225.629 79.0053 225.399 78.9093 225.186 78.792C224.983 78.6747 224.802 78.5467 224.642 78.408C224.493 78.2587 224.37 78.1147 224.274 77.976H224.242V79H222.034V66.904ZM224.242 75.112C224.242 75.6987 224.407 76.1733 224.738 76.536C225.079 76.8987 225.554 77.08 226.162 77.08C226.77 77.08 227.239 76.8987 227.57 76.536C227.911 76.1733 228.082 75.6987 228.082 75.112C228.082 74.5253 227.911 74.0507 227.57 73.688C227.239 73.3253 226.77 73.144 226.162 73.144C225.554 73.144 225.079 73.3253 224.738 73.688C224.407 74.0507 224.242 74.5253 224.242 75.112ZM236.208 80.264C236.048 80.68 235.894 81.048 235.744 81.368C235.595 81.688 235.403 81.9547 235.168 82.168C234.944 82.392 234.656 82.5573 234.304 82.664C233.952 82.7813 233.488 82.84 232.912 82.84C232.294 82.84 231.696 82.744 231.12 82.552L231.44 80.584C231.803 80.744 232.176 80.824 232.56 80.824C232.827 80.824 233.046 80.792 233.216 80.728C233.387 80.6747 233.526 80.5893 233.632 80.472C233.75 80.3653 233.846 80.232 233.92 80.072C233.995 79.912 234.075 79.7253 234.16 79.512L234.336 79.064L230.928 71.224H233.52L235.52 76.36H235.552L237.264 71.224H239.728L236.208 80.264Z" fill="#A5A5A5"/>
<path d="M258.049 82.2009C257.607 82.7799 256.711 82.4627 256.7 81.7233L256.545 70.9092H263.531C264.797 70.9092 265.503 72.4304 264.716 73.4618L258.049 82.2009Z" fill="url(#paint14_linear_67_402)"/>
<path d="M258.049 82.2009C257.607 82.7799 256.711 82.4627 256.7 81.7233L256.545 70.9092H263.531C264.797 70.9092 265.503 72.4304 264.716 73.4618L258.049 82.2009Z" fill="url(#paint15_linear_67_402)" fill-opacity="0.2"/>
<path d="M255.207 64.7991C255.649 64.22 256.545 64.5373 256.556 65.2766L256.624 76.0907H249.725C248.459 76.0907 247.753 74.5696 248.54 73.5381L255.207 64.7991Z" fill="#3ECF8E"/>
<mask id="mask3_67_402" style="mask-type:luminance" maskUnits="userSpaceOnUse" x="269" y="64" width="78" height="19">
<path d="M347 64.5H269.047V82.5H347V64.5Z" fill="white"/>
</mask>
<g mask="url(#mask3_67_402)">
<path d="M294.88 69.3682C297.299 69.3682 298.693 71.294 298.693 73.8496C298.693 76.4578 297.131 78.3836 294.796 78.3838C293.654 78.3838 292.813 77.9107 292.411 77.333V81.5H290.176V69.5605H292.343V70.6113C292.713 69.9461 293.637 69.3682 294.88 69.3682ZM275.26 69.2979C277.611 69.298 278.401 70.8564 278.501 71.7842L276.637 72.2217C276.57 71.714 276.217 71.0665 275.277 71.0664C274.689 71.0664 274.218 71.4338 274.218 71.9238C274.218 72.3439 274.52 72.6068 274.974 72.6943L276.15 72.957C277.779 73.3072 278.603 74.3402 278.603 75.6006C278.603 77.0009 277.561 78.4365 275.394 78.4365C272.908 78.4365 272.051 76.7557 271.951 75.7754L273.865 75.3379C273.915 76.0205 274.404 76.6504 275.377 76.6504C276.116 76.6503 276.469 76.2479 276.469 75.793C276.469 75.4079 276.217 75.0922 275.578 74.9521L274.487 74.6895C272.891 74.3218 272.168 73.324 272.168 72.1162C272.169 70.5759 273.48 69.2979 275.26 69.2979ZM331.464 69.2979C333.816 69.298 334.606 70.8564 334.706 71.7842L332.842 72.2217C332.775 71.7141 332.422 71.0666 331.481 71.0664C330.893 71.0664 330.422 71.4338 330.422 71.9238C330.422 72.3439 330.724 72.6068 331.178 72.6943L332.354 72.957C333.983 73.3072 334.807 74.3402 334.807 75.6006C334.807 77.0009 333.765 78.4365 331.598 78.4365C329.112 78.4365 328.255 76.7557 328.155 75.7754L330.07 75.3379C330.12 76.0205 330.607 76.6503 331.581 76.6504C332.32 76.6504 332.673 76.248 332.673 75.793C332.673 75.4079 332.422 75.0922 331.784 74.9521L330.691 74.6895C329.095 74.3218 328.373 73.324 328.373 72.1162C328.374 70.5759 329.683 69.2979 331.464 69.2979ZM340.014 69.2979C342.567 69.2979 344.096 70.9961 344.096 73.7617C344.096 74.0932 344.063 74.4425 344.063 74.4795H338.15C338.2 75.6173 339.124 76.4404 340.233 76.4404C341.274 76.4404 341.845 75.8979 342.114 75.1279L343.979 75.7051C343.559 77.193 342.248 78.4364 340.216 78.4365C337.948 78.4365 335.949 76.7379 335.949 73.832C335.949 71.0839 337.898 69.298 340.014 69.2979ZM303.671 69.2979C306.291 69.2979 307.266 70.8384 307.266 72.5713V76.8076C307.266 77.2627 307.316 77.8762 307.367 78.1738H305.318C305.267 77.9462 305.233 77.4732 305.233 77.1406C304.813 77.8232 304.024 78.4188 302.798 78.4189C301.034 78.4189 299.959 77.1759 299.958 75.8281C299.958 74.2877 301.051 73.4299 302.428 73.2197L304.461 72.9043C304.931 72.8342 305.082 72.5893 305.082 72.292C305.082 71.6793 304.629 71.1709 303.688 71.1709C302.714 71.1709 302.176 71.8188 302.109 72.5713L300.126 72.1338C300.261 70.7859 301.454 69.2979 303.671 69.2979ZM323.013 69.2979C325.633 69.298 326.608 70.8385 326.608 72.5713V76.8076C326.608 77.2627 326.658 77.8762 326.708 78.1738H324.66C324.609 77.9462 324.575 77.4732 324.575 77.1406C324.155 77.8233 323.365 78.4189 322.139 78.4189C320.375 78.4187 319.3 77.1758 319.3 75.8281C319.3 74.2877 320.392 73.4298 321.77 73.2197L323.802 72.9043C324.272 72.8343 324.424 72.5894 324.424 72.292C324.424 71.6793 323.97 71.1709 323.03 71.1709C322.056 71.1709 321.518 71.8188 321.451 72.5713L319.468 72.1338C319.602 70.7859 320.796 69.2979 323.013 69.2979ZM282.484 74.5332C282.484 75.4958 282.954 76.2656 283.995 76.2656C284.987 76.2656 285.558 75.5652 285.558 74.5674V69.5615H287.792V76.6162C287.792 77.2812 287.842 77.8762 287.876 78.1738H285.743C285.709 77.9987 285.675 77.5961 285.675 77.2461C285.222 78.0513 284.264 78.4013 283.391 78.4014C281.392 78.4014 280.25 76.8788 280.249 75.0059V69.5615H282.484V74.5332ZM311.719 70.5068C312.089 69.8942 312.996 69.334 314.222 69.334C316.641 69.334 318.036 71.2772 318.036 73.833C318.035 76.441 316.49 78.3837 314.138 78.3838C312.996 78.3838 312.122 77.859 311.686 77.124V78.1738H309.518V65.5H311.719V70.5068ZM303.218 74.6025C302.647 74.69 302.193 75.0224 302.193 75.6875C302.193 76.1951 302.546 76.6855 303.268 76.6855C304.209 76.6855 305.082 76.2125 305.082 74.6895V74.3047L303.218 74.6025ZM322.559 74.6025C321.988 74.6901 321.535 75.0226 321.535 75.6875C321.535 76.1951 321.887 76.6855 322.61 76.6855C323.551 76.6855 324.424 76.2125 324.424 74.6895V74.3047L322.559 74.6025ZM294.443 71.4512C293.301 71.4513 292.377 72.3444 292.377 73.8672C292.377 75.3901 293.301 76.3007 294.443 76.3008C295.586 76.3008 296.493 75.4077 296.493 73.8672C296.492 72.3443 295.585 71.4512 294.443 71.4512ZM313.751 71.417C312.626 71.417 311.686 72.2745 311.686 73.8496C311.686 75.4076 312.626 76.3007 313.751 76.3008C314.894 76.3008 315.801 75.4251 315.801 73.8496C315.801 72.2744 314.894 71.417 313.751 71.417ZM340.048 71.1885C338.889 71.1885 338.25 72.099 338.2 72.8867H341.896C341.862 72.0291 341.324 71.1887 340.048 71.1885Z" fill="white"/>
</g>
<defs>
<filter id="filter0_di_67_402" x="9.83575" y="5.92188" width="46.3164" height="46.0293" filterUnits="userSpaceOnUse" color-interpolation-filters="sRGB">
<feFlood flood-opacity="0" result="BackgroundImageFix"/>
<feColorMatrix in="SourceAlpha" type="matrix" values="0 0 0 0 0 0 0 0 0 0 0 0 0 0 0 0 0 0 127 0" result="hardAlpha"/>
<feOffset dy="4"/>
<feGaussianBlur stdDeviation="2"/>
<feComposite in2="hardAlpha" operator="out"/>
<feColorMatrix type="matrix" values="0 0 0 0 0 0 0 0 0 0 0 0 0 0 0 0 0 0 0.15 0"/>
<feBlend mode="normal" in2="BackgroundImageFix" result="effect1_dropShadow_67_402"/>
<feBlend mode="normal" in="SourceGraphic" in2="effect1_dropShadow_67_402" result="shape"/>
<feColorMatrix in="SourceAlpha" type="matrix" values="0 0 0 0 0 0 0 0 0 0 0 0 0 0 0 0 0 0 127 0" result="hardAlpha"/>
<feOffset dx="1" dy="1"/>
<feComposite in2="hardAlpha" operator="arithmetic" k2="-1" k3="1"/>
<feColorMatrix type="matrix" values="0 0 0 0 1 0 0 0 0 1 0 0 0 0 1 0 0 0 0.75 0"/>
<feBlend mode="normal" in2="shape" result="effect2_innerShadow_67_402"/>
</filter>
<filter id="filter1_f_67_402" x="36.4613" y="23.2065" width="19.328" height="16.1626" filterUnits="userSpaceOnUse" color-interpolation-filters="sRGB">
<feFlood flood-opacity="0" result="BackgroundImageFix"/>
<feBlend mode="normal" in="SourceGraphic" in2="BackgroundImageFix" result="shape"/>
<feGaussianBlur stdDeviation="0.5" result="effect1_foregroundBlur_67_402"/>
</filter>
<filter id="filter2_f_67_402" x="34.8051" y="37.5713" width="23.9524" height="10.8013" filterUnits="userSpaceOnUse" color-interpolation-filters="sRGB">
<feFlood flood-opacity="0" result="BackgroundImageFix"/>
<feBlend mode="normal" in="SourceGraphic" in2="BackgroundImageFix" result="shape"/>
<feGaussianBlur stdDeviation="0.5" result="effect1_foregroundBlur_67_402"/>
</filter>
<filter id="filter3_f_67_402" x="6.797" y="4.08447" width="23.9524" height="10.8013" filterUnits="userSpaceOnUse" color-interpolation-filters="sRGB">
<feFlood flood-opacity="0" result="BackgroundImageFix"/>
<feBlend mode="normal" in="SourceGraphic" in2="BackgroundImageFix" result="shape"/>
<feGaussianBlur stdDeviation="0.5" result="effect1_foregroundBlur_67_402"/>
</filter>
<filter id="filter4_f_67_402" x="36.2445" y="29.3377" width="20.258" height="14.0885" filterUnits="userSpaceOnUse" color-interpolation-filters="sRGB">
<feFlood flood-opacity="0" result="BackgroundImageFix"/>
<feBlend mode="normal" in="SourceGraphic" in2="BackgroundImageFix" result="shape"/>
<feGaussianBlur stdDeviation="1.4" result="effect1_foregroundBlur_67_402"/>
</filter>
<filter id="filter5_f_67_402" x="21.9958" y="2.14531" width="34.0973" height="19.7536" filterUnits="userSpaceOnUse" color-interpolation-filters="sRGB">
<feFlood flood-opacity="0" result="BackgroundImageFix"/>
<feBlend mode="normal" in="SourceGraphic" in2="BackgroundImageFix" result="shape"/>
<feGaussianBlur stdDeviation="1.4" result="effect1_foregroundBlur_67_402"/>
</filter>
<radialGradient id="paint0_radial_67_402" cx="0" cy="0" r="1" gradientTransform="matrix(27.9696 -18.6947 16.5095 25.8619 23.2126 34.4036)" gradientUnits="userSpaceOnUse">
<stop stop-color="#9F9F70"/>
<stop offset="1" stop-color="#4E4E4E"/>
</radialGradient>
<linearGradient id="paint1_linear_67_402" x1="41.6085" y1="32.0985" x2="43.9821" y2="48" gradientUnits="userSpaceOnUse">
<stop stop-color="#FFFD53" stop-opacity="0"/>
<stop offset="1" stop-color="#A5A449"/>
</linearGradient>
<linearGradient id="paint2_linear_67_402" x1="27.9622" y1="16.8419" x2="16.3688" y2="32.5016" gradientUnits="userSpaceOnUse">
<stop stop-color="#F8F653" stop-opacity="0"/>
<stop offset="1" stop-color="#929131"/>
</linearGradient>
<linearGradient id="paint3_linear_67_402" x1="43.794" y1="10.0438" x2="21.4277" y2="2.96886" gradientUnits="userSpaceOnUse">
<stop stop-color="#AFAE8C"/>
<stop offset="1" stop-color="#E6E527"/>
</linearGradient>
<linearGradient id="paint4_linear_67_402" x1="43.794" y1="27.6056" x2="47.3586" y2="35.3535" gradientUnits="userSpaceOnUse">
<stop stop-color="#595959"/>
<stop offset="1" stop-color="#676644"/>
</linearGradient>
<linearGradient id="paint5_linear_67_402" x1="42.1378" y1="41.9703" x2="45.7023" y2="49.7182" gradientUnits="userSpaceOnUse">
<stop stop-color="#8F8D8D"/>
<stop offset="1" stop-color="#676644"/>
</linearGradient>
<linearGradient id="paint6_linear_67_402" x1="14.1297" y1="8.48351" x2="17.6943" y2="16.2314" gradientUnits="userSpaceOnUse">
<stop stop-color="#A1A187"/>
<stop offset="1" stop-color="#676644"/>
</linearGradient>
<linearGradient id="paint7_linear_67_402" x1="26.3112" y1="20.3108" x2="16.1131" y2="3.80138" gradientUnits="userSpaceOnUse">
<stop stop-color="#FFFD3B"/>
<stop offset="1" stop-color="#FFFF97"/>
</linearGradient>
<linearGradient id="paint8_linear_67_402" x1="14.2419" y1="26.7032" x2="2.55039" y2="39.9456" gradientUnits="userSpaceOnUse">
<stop stop-opacity="0"/>
<stop offset="1"/>
</linearGradient>
<radialGradient id="paint9_radial_67_402" cx="0" cy="0" r="1" gradientUnits="userSpaceOnUse" gradientTransform="translate(23.4237 26.7032) rotate(125.401) scale(19.244 40.95)">
<stop offset="0.507192" stop-opacity="0"/>
<stop offset="0.92533"/>
</radialGradient>
<radialGradient id="paint10_radial_67_402" cx="0" cy="0" r="1" gradientUnits="userSpaceOnUse" gradientTransform="translate(26.8781 21.9917) rotate(177.696) scale(25.0341 37.6522)">
<stop offset="0.641979" stop-opacity="0"/>
<stop offset="1"/>
</radialGradient>
<linearGradient id="paint11_linear_67_402" x1="31.9914" y1="25.122" x2="11.826" y2="35.9508" gradientUnits="userSpaceOnUse">
<stop stop-color="white" stop-opacity="0"/>
<stop offset="1" stop-color="#999999"/>
</linearGradient>
<linearGradient id="paint12_linear_67_402" x1="44.9229" y1="10.016" x2="21.3646" y2="2.10739" gradientUnits="userSpaceOnUse">
<stop stop-color="#DCDB23"/>
</linearGradient>
<linearGradient id="paint13_linear_67_402" x1="27.4274" y1="6.00004" x2="27.4274" y2="48.3552" gradientUnits="userSpaceOnUse">
<stop stop-color="#B1B1B1"/>
<stop offset="1" stop-color="#666666" stop-opacity="0.5"/>
</linearGradient>
<linearGradient id="paint14_linear_67_402" x1="256.545" y1="73.3069" x2="262.826" y2="75.8382" gradientUnits="userSpaceOnUse">
<stop stop-color="#249361"/>
<stop offset="1" stop-color="#3ECF8E"/>
</linearGradient>
<linearGradient id="paint15_linear_67_402" x1="253.792" y1="69.384" x2="256.804" y2="74.8323" gradientUnits="userSpaceOnUse">
<stop/>
<stop offset="1" stop-opacity="0"/>
</linearGradient>
</defs>
</svg>
